<svg width="100" height="100" viewBox="0 0 100 100" fill="none" xmlns="http://www.w3.org/2000/svg">
<rect width="100" height="100" fill="white"/>
<g clip-path="url(#clip0_9_7)">
<path fill-rule="evenodd" clip-rule="evenodd" d="M50 63C57.4261 63 64.548 60.05 69.799 54.799C75.05 49.548 78 42.4261 78 35C78 27.5739 75.05 20.452 69.799 15.201C64.548 9.94999 57.4261 7 50 7C42.5739 7 35.452 9.94999 30.201 15.201C24.95 20.452 22 27.5739 22 35C22 42.4261 24.95 49.548 30.201 54.799C35.452 60.05 42.5739 63 50 63ZM50 67C58.4869 67 66.6263 63.6286 72.6274 57.6274C78.6286 51.6263 82 43.4869 82 35C82 26.5131 78.6286 18.3737 72.6274 12.3726C66.6263 6.37142 58.4869 3 50 3C41.5131 3 33.3737 6.37142 27.3726 12.3726C21.3714 18.3737 18 26.5131 18 35C18 43.4869 21.3714 51.6263 27.3726 57.6274C33.3737 63.6286 41.5131 67 50 67Z" fill="#BBBBBB"/>
<path fill-rule="evenodd" clip-rule="evenodd" d="M35.14 44.268C35.5994 44.0028 36.1452 43.9309 36.6576 44.0682C37.1699 44.2055 37.6068 44.5407 37.872 45C39.1004 47.1293 40.8682 48.8975 42.9973 50.1263C45.1264 51.3552 47.5417 52.0014 50 52C52.4583 52.0014 54.8736 51.3552 57.0027 50.1263C59.1318 48.8975 60.8996 47.1293 62.128 45C62.2584 44.7707 62.4328 44.5695 62.6413 44.4079C62.8497 44.2463 63.0881 44.1275 63.3426 44.0584C63.5972 43.9893 63.8629 43.9712 64.1244 44.0052C64.386 44.0392 64.6382 44.1246 64.8667 44.2565C65.0951 44.3884 65.2952 44.5641 65.4554 44.7736C65.6156 44.9832 65.7328 45.2223 65.8002 45.4773C65.8676 45.7323 65.8839 45.9981 65.8482 46.2594C65.8125 46.5208 65.7254 46.7725 65.592 47C64.0125 49.7374 61.7398 52.0105 59.0026 53.5904C56.2655 55.1704 53.1604 56.0014 50 56C46.8396 56.0014 43.7345 55.1704 40.9974 53.5904C38.2602 52.0105 35.9875 49.7374 34.408 47C34.1428 46.5406 34.0709 45.9947 34.2082 45.4824C34.3455 44.9701 34.6807 44.5332 35.14 44.268Z" fill="#BBBBBB"/>
<path d="M46 32C46 35.312 44.208 38 42 38C39.792 38 38 35.312 38 32C38 28.688 39.792 26 42 26C44.208 26 46 28.688 46 32ZM62 32C62 35.312 60.208 38 58 38C55.792 38 54 35.312 54 32C54 28.688 55.792 26 58 26C60.208 26 62 28.688 62 32Z" fill="#BBBBBB"/>
</g>
<path d="M19.848 75.108H20.736V75.432C20.736 77.268 18.78 78.552 16.56 78.888L16.188 78.084C18.108 77.832 19.848 76.752 19.848 75.432V75.108ZM20.268 75.108H21.144V75.432C21.144 76.752 22.896 77.832 24.816 78.084L24.432 78.888C22.224 78.552 20.268 77.268 20.268 75.432V75.108ZM16.488 74.628H24.516V75.432H16.488V74.628ZM15.588 79.668H25.416V80.484H15.588V79.668ZM20.076 80.172H21.072V82.668H20.076V80.172ZM16.836 83.88H24.324V84.696H16.836V83.88ZM16.836 81.624H17.82V84.192H16.836V81.624ZM34.5111 74.076H35.5071V84.948H34.5111V74.076ZM27.2511 75H28.2351V77.868H31.3671V75H32.3631V82.332H27.2511V75ZM28.2351 78.66V81.516H31.3671V78.66H28.2351ZM42.0701 79.512H43.0661V81.408H42.0701V79.512ZM37.6661 79.164H47.4701V79.968H37.6661V79.164ZM42.5621 81.108C44.8901 81.108 46.2821 81.792 46.2821 83.016C46.2821 84.228 44.8901 84.912 42.5621 84.912C40.2341 84.912 38.8421 84.228 38.8421 83.016C38.8421 81.792 40.2341 81.108 42.5621 81.108ZM42.5621 81.876C40.8701 81.876 39.8501 82.284 39.8501 83.016C39.8501 83.736 40.8701 84.144 42.5621 84.144C44.2661 84.144 45.2741 83.736 45.2741 83.016C45.2741 82.284 44.2661 81.876 42.5621 81.876ZM41.9261 74.976H42.8141V75.3C42.8141 77.052 40.8221 78.228 38.5781 78.504L38.2181 77.712C40.1621 77.508 41.9261 76.536 41.9261 75.3V74.976ZM42.3461 74.976H43.2221V75.3C43.2221 76.536 44.9861 77.508 46.9301 77.712L46.5701 78.504C44.3261 78.228 42.3461 77.052 42.3461 75.3V74.976ZM38.5661 74.58H46.5941V75.384H38.5661V74.58ZM59.777 74.088H60.785V79.908H59.777V74.088ZM53.789 80.448H54.773V81.768H59.801V80.448H60.785V84.792H53.789V80.448ZM54.773 82.56V83.988H59.801V82.56H54.773ZM54.965 74.604C56.609 74.604 57.785 75.624 57.785 77.1C57.785 78.588 56.609 79.608 54.965 79.608C53.321 79.608 52.133 78.588 52.133 77.1C52.133 75.624 53.321 74.604 54.965 74.604ZM54.965 75.432C53.885 75.432 53.105 76.116 53.105 77.1C53.105 78.084 53.885 78.768 54.965 78.768C56.045 78.768 56.825 78.084 56.825 77.1C56.825 76.116 56.045 75.432 54.965 75.432ZM70.816 74.088H71.812V84.936H70.816V74.088ZM63.616 75.144H64.6V81.864H63.616V75.144ZM63.616 81.276H64.504C66.148 81.276 67.864 81.156 69.7 80.772L69.82 81.624C67.936 82.008 66.22 82.14 64.504 82.14H63.616V81.276ZM81.3031 74.076H82.3111V84.948H81.3031V74.076ZM82.0711 78.36H84.0871V79.2H82.0711V78.36ZM74.4271 81.408H75.2791C77.2831 81.408 78.6871 81.336 80.3071 81.036L80.4151 81.876C78.7471 82.188 77.3191 82.248 75.2791 82.248H74.4271V81.408ZM74.4271 75.132H79.4671V75.948H75.4111V81.78H74.4271V75.132Z" fill="#B8B8B8"/>
<defs>
<clipPath id="clip0_9_7">
<rect width="64" height="64" fill="white" transform="translate(18 6)"/>
</clipPath>
</defs>
</svg>
