<?xml version="1.0" ?><svg xmlns="http://www.w3.org/2000/svg" viewBox="0 0 32 32">
                                        <g id="_47_download-01" data-name="47 download-01">
                                            <path
                                                d="M16,22.58A2,2,0,0,1,14.59,22l-6.3-6.29,1.42-1.42L16,20.59l6.29-6.3,1.42,1.42L17.41,22A2,2,0,0,1,16,22.58Z" />
                                            <path
                                                d="M26,29H6a3,3,0,0,1-3-3V22H5v4a1,1,0,0,0,1,1H26a1,1,0,0,0,1-1V22h2v4A3,3,0,0,1,26,29Z" />
                                            <rect x="15" y="5" width="2" height="16" />
                                        </g>
                                    </svg>